<?xml version="1.0" encoding="utf-8"?>
<!-- Generator: Adobe Illustrator 16.1.0, SVG Export Plug-In . SVG Version: 6.00 Build 0)  -->
<!DOCTYPE svg PUBLIC "-//W3C//DTD SVG 1.1//EN" "http://www.w3.org/Graphics/SVG/1.1/DTD/svg11.dtd">
<svg version="1.1" xmlns="http://www.w3.org/2000/svg" xmlns:xlink="http://www.w3.org/1999/xlink" x="0px" y="0px"
	 width="841.89px" height="595.28px" viewBox="0 0 841.89 595.28" enable-background="new 0 0 841.89 595.28" xml:space="preserve">
<g id="Droid_1">
	<g id="Layer_1">
		<path fill="#A4C439" d="M84.291,176.631l0.035,57.485c-0.01,13.422,10.845,24.255,24.261,24.258l16.519,0.007l0.019,50.379
			c-0.002,12.541,10.193,22.738,22.721,22.738c12.563,0,22.742-10.205,22.745-22.754l-0.013-50.37l30.696-0.006l0.013,50.377
			c-0.003,12.535,10.199,22.748,22.729,22.729c12.562,0.008,22.747-10.199,22.745-22.75l-0.014-50.363l16.576-0.013
			c13.383,0.005,24.269-10.844,24.271-24.266l-0.025-57.487L84.291,176.631z"/>
	</g>
	<g id="right_arm">
		<path fill="#A4C439" d="M302.998,178.98c-8.877,8.879-8.877,23.273,0.004,32.15c8.871,8.885,23.275,8.871,32.153-0.011
			l39.009-39.031c8.891-8.888,8.881-23.265-0.001-32.153c-8.879-8.876-23.257-8.884-32.154,0.01L302.998,178.98z"/>
	</g>
	<g id="left_arm">
		<path fill="#A4C439" d="M52.73,172.338c-12.556-0.006-22.732,10.19-22.735,22.735l0.017,55.182
			c0.003,12.588,10.184,22.745,22.74,22.743c12.564,0.001,22.742-10.162,22.729-22.742l0.001-55.195
			C75.478,182.519,65.288,172.329,52.73,172.338"/>
	</g>
	<g id="large_tick">
		<path fill="#A4C439" d="M265.627,45.696c1.52-2.632,0.617-5.995-2.014-7.514l0,0c-2.631-1.52-5.994-0.618-7.514,2.012
			l-17.748,30.744c-1.52,2.631-0.619,5.994,2.012,7.515l0,0c2.631,1.518,5.994,0.615,7.514-2.013"/>
	</g>
	<g id="small_tick">
		<path fill="#B3B3B3" d="M212.196,34.266c0.193-1.103-0.543-2.154-1.645-2.349l0,0c-1.104-0.194-2.154,0.542-2.35,1.645
			l-5.198,29.481c-0.194,1.104,0.542,2.155,1.646,2.35l0,0c1.102,0.194,2.154-0.542,2.348-1.646L212.196,34.266z"/>
		<path fill="#B3B3B3" d="M235.77,40.949c0.381-1.053-0.16-2.216-1.212-2.599l0,0c-1.053-0.383-2.216,0.159-2.599,1.211
			l-10.24,28.131c-0.383,1.053,0.16,2.217,1.213,2.6l0,0c1.052,0.383,2.217-0.159,2.598-1.212L235.77,40.949z"/>
		<path fill="#B3B3B3" d="M277.692,65.967c0.718-0.858,0.607-2.136-0.25-2.856l0,0c-0.858-0.72-2.137-0.607-2.857,0.249
			l-19.242,22.933c-0.721,0.857-0.607,2.138,0.249,2.857l0,0c0.858,0.72,2.138,0.609,2.856-0.25L277.692,65.967z"/>
		<path fill="#B3B3B3" d="M294.766,83.542c0.855-0.721,0.969-1.998,0.25-2.857l0,0c-0.721-0.857-1.998-0.969-2.857-0.25
			l-22.932,19.242c-0.859,0.72-0.97,2-0.252,2.857l0,0c0.721,0.858,2,0.972,2.857,0.25L294.766,83.542z"/>
		<path fill="#B3B3B3" d="M187.82,31.778c-0.001-1.12-0.909-2.027-2.027-2.027l0,0c-1.12,0-2.027,0.908-2.028,2.027v29.937
			c0,1.12,0.908,2.028,2.028,2.028l0,0c1.119,0,2.027-0.908,2.026-2.028L187.82,31.778z"/>
		<path fill="#B3B3B3" d="M163.382,33.562c-0.195-1.103-1.248-1.839-2.349-1.645l0,0c-1.103,0.194-1.839,1.246-1.646,2.349
			l5.198,29.482c0.194,1.103,1.247,1.839,2.35,1.645l0,0c1.103-0.194,1.839-1.247,1.644-2.349L163.382,33.562z"/>
		<path fill="#B3B3B3" d="M139.625,39.561c-0.384-1.052-1.548-1.594-2.599-1.211l0,0c-1.052,0.383-1.595,1.546-1.213,2.599
			l10.239,28.131c0.383,1.052,1.548,1.595,2.6,1.212l0,0c1.052-0.383,1.595-1.547,1.21-2.599L139.625,39.561z"/>
		<path fill="#B3B3B3" d="M117.271,49.595c-0.561-0.969-1.801-1.301-2.77-0.742l0,0c-0.969,0.56-1.302,1.8-0.742,2.77l14.968,25.926
			c0.56,0.97,1.802,1.302,2.771,0.742l0,0c0.97-0.56,1.303-1.8,0.741-2.77L117.271,49.595z"/>
		<path fill="#B3B3B3" d="M97,63.358c-0.721-0.857-2-0.969-2.856-0.25l0,0c-0.857,0.719-0.97,1.999-0.25,2.856l19.242,22.933
			c0.72,0.858,2,0.969,2.857,0.25l0,0c0.857-0.719,0.97-2,0.249-2.856L97,63.358z"/>
		<path fill="#B3B3B3" d="M79.425,80.432c-0.858-0.72-2.138-0.606-2.856,0.25l0,0c-0.72,0.857-0.608,2.137,0.25,2.857l22.932,19.243
			c0.858,0.72,2.139,0.607,2.857-0.25l0,0c0.72-0.857,0.608-2.137-0.25-2.856L79.425,80.432z"/>
	</g>
	<g id="Layer_6">
	</g>
	<g id="Layer_2">
		<line fill="none" x1="185.792" y1="172.333" x2="185.792" y2="73.75"/>
		<g>
			<g>
				<g>
					<path fill="#A4C439" d="M185.792,73.75c-55.284,0-100.326,42.2-102.299,94.972h204.599
						C286.117,115.95,241.076,73.75,185.792,73.75z M139.266,131.618c-4.716-0.01-8.559-3.844-8.559-8.581
						c0.002-4.718,3.834-8.597,8.566-8.596c4.749-0.004,8.59,3.878,8.596,8.594C147.872,127.768,144.022,131.615,139.266,131.618z
						 M232.524,131.602c-4.734,0.005-8.589-3.834-8.588-8.585c0.016-4.704,3.848-8.588,8.592-8.604
						c4.709,0.014,8.572,3.896,8.568,8.609C241.107,127.763,237.257,131.603,232.524,131.602z"/>
				</g>
			</g>
			<g>
				<g>
					<path fill="#A4C439" d="M83.417,172.333c0,0.89,0.014,1.777,0.038,2.662v-5.324C83.43,170.555,83.417,171.442,83.417,172.333z"
						/>
				</g>
			</g>
		</g>
	</g>
	<g id="Layer_9">
		<circle fill="#FFFFFF" cx="185.942" cy="172.338" r="32.362"/>
	</g>
	<g id="Layer_3">
	</g>
	<g id="Layer_10">
		<path fill="#A4C439" d="M203.584,153.896l-5.426,9.398c-1.663,2.887-5.361,3.874-8.25,2.21c-2.891-1.672-3.885-5.361-2.216-8.255
			l5.385-9.329c-10.981-3.138-23.101,1.439-29.071,11.778c-7.037,12.199-2.859,27.788,9.333,34.831
			c12.2,7.042,27.79,2.859,34.835-9.332C214.203,174.755,212.004,161.819,203.584,153.896z"/>
	</g>
</g>
<g id="Droid_2">
	<g id="pants">
		<path fill="#A4C439" d="M475.24,176.631l0.035,57.485c-0.011,13.422,10.844,24.255,24.26,24.258l16.52,0.007l0.018,50.379
			c-0.002,12.541,10.193,22.738,22.721,22.738c12.564,0,22.742-10.205,22.746-22.754l-0.014-50.37l30.697-0.006l0.012,50.377
			c-0.002,12.535,10.199,22.748,22.729,22.729c12.562,0.008,22.748-10.199,22.746-22.75l-0.014-50.363l16.576-0.013
			c13.383,0.005,24.268-10.844,24.271-24.266l-0.025-57.487L475.24,176.631z"/>
	</g>
	<g id="right_arm_copy">
		<path fill="#A4C439" d="M693.947,178.98c-8.877,8.879-8.877,23.273,0.004,32.15c8.871,8.885,23.275,8.871,32.152-0.011
			l39.01-39.031c8.891-8.888,8.881-23.265-0.002-32.153c-8.879-8.876-23.256-8.884-32.154,0.01L693.947,178.98z"/>
	</g>
	<g id="left_arm_copy">
		<path fill="#A4C439" d="M443.68,172.338c-12.557-0.006-22.732,10.19-22.735,22.735l0.017,55.182
			c0.003,12.588,10.184,22.745,22.74,22.743c12.564,0.001,22.742-10.162,22.729-22.742l0.001-55.195
			C466.428,182.519,456.236,172.329,443.68,172.338"/>
	</g>
	<g id="large_tick_copy">
		<path fill="#A4C439" d="M656.576,45.696c1.52-2.632,0.617-5.995-2.014-7.514l0,0c-2.631-1.52-5.994-0.618-7.514,2.012
			l-17.748,30.744c-1.52,2.631-0.619,5.994,2.012,7.515l0,0c2.631,1.518,5.994,0.615,7.514-2.013"/>
		<path fill="#A4C439" d="M506.986,39.874c-1.52-2.632-4.884-3.531-7.514-2.013l0,0c-2.631,1.519-3.533,4.883-2.015,7.513
			l17.75,30.744c1.519,2.63,4.882,3.534,7.515,2.013l0,0c2.631-1.52,3.529-4.883,2.014-7.513"/>
	</g>
	<g id="Layer_6_copy">
	</g>
	<g id="Layer_2_copy">
		<line fill="none" x1="576.74" y1="172.333" x2="576.74" y2="73.75"/>
		<g>
			<g>
				<g>
					<path fill="#A4C439" d="M576.74,73.75c-55.283,0-100.325,42.2-102.299,94.972h204.6C677.066,115.95,632.025,73.75,576.74,73.75
						z"/>
				</g>
			</g>
			<g>
				<g>
					<path fill="#A4C439" d="M474.365,172.333c0,0.89,0.014,1.777,0.039,2.662v-5.324
						C474.379,170.555,474.365,171.442,474.365,172.333z"/>
				</g>
			</g>
		</g>
	</g>
	<g id="Layer_22">
		<path fill="#FFFFFF" d="M620.584,109.292c1.699-2.941,0.692-6.703-2.248-8.403l0,0c-2.942-1.695-6.701-0.687-8.399,2.253
			l-12.161,21.059c-1.696,2.941-0.686,6.702,2.253,8.397l0,0c2.941,1.697,6.703,0.689,8.398-2.254L620.584,109.292z"/>
		<path fill="#FFFFFF" d="M565.65,97.077c-0.206-1.168-1.318-1.948-2.486-1.742l0,0c-1.168,0.206-1.948,1.319-1.742,2.487
			l3.874,21.968c0.206,1.167,1.319,1.947,2.487,1.741l0,0c1.168-0.206,1.947-1.319,1.741-2.487L565.65,97.077z"/>
		<path fill="#FFFFFF" d="M552.75,100.146c-0.405-1.114-1.636-1.689-2.75-1.283l0,0c-1.115,0.405-1.69,1.638-1.284,2.751
			l7.63,20.961c0.406,1.114,1.637,1.688,2.752,1.283l0,0c1.114-0.406,1.688-1.638,1.283-2.751L552.75,100.146z"/>
		<path fill="#FFFFFF" d="M540.579,105.408c-0.593-1.027-1.904-1.379-2.931-0.786l0,0c-1.028,0.593-1.381,1.906-0.787,2.933
			l11.153,19.318c0.595,1.027,1.906,1.379,2.934,0.786l0,0c1.026-0.594,1.378-1.906,0.785-2.933L540.579,105.408z"/>
		<path fill="#FFFFFF" d="M529.507,112.703c-0.762-0.908-2.114-1.027-3.022-0.265l0,0c-0.91,0.762-1.029,2.117-0.267,3.025
			l14.339,17.087c0.764,0.909,2.117,1.027,3.025,0.265l0,0c0.908-0.763,1.026-2.117,0.265-3.024L529.507,112.703z"/>
		<path fill="#FFFFFF" d="M519.869,121.811c-0.907-0.762-2.26-0.645-3.022,0.265l0,0c-0.764,0.908-0.646,2.264,0.263,3.025
			l17.089,14.338c0.909,0.762,2.263,0.644,3.025-0.265l0,0c0.762-0.909,0.643-2.264-0.265-3.024L519.869,121.811z"/>
		<path fill="#FFFFFF" d="M511.96,132.454c-1.026-0.593-2.338-0.243-2.931,0.786l0,0c-0.594,1.027-0.242,2.341,0.784,2.934
			l19.319,11.153c1.027,0.592,2.34,0.241,2.933-0.786l0,0c0.593-1.028,0.24-2.341-0.785-2.933L511.96,132.454z"/>
		<path fill="#FFFFFF" d="M636.372,125.098c0.905-0.757,1.024-2.111,0.258-3.019l0,0c-0.756-0.907-2.113-1.027-3.019-0.265
			l-17.089,14.339c-0.91,0.762-1.026,2.116-0.267,3.024l0,0c0.764,0.907,2.119,1.025,3.023,0.264L636.372,125.098z"/>
		<path fill="#FFFFFF" d="M592.058,97.818c0.206-1.162-0.571-2.278-1.741-2.479l0,0c-1.164-0.208-2.28,0.571-2.485,1.737
			l-3.872,21.969c-0.207,1.168,0.573,2.281,1.738,2.488l0,0c1.169,0.204,2.283-0.576,2.485-1.742L592.058,97.818z"/>
		<path fill="#FFFFFF" d="M578.885,96.29c0.002-1.18-0.958-2.145-2.145-2.139l0,0c-1.183-0.003-2.146,0.958-2.146,2.142
			l0.002,22.307c-0.001,1.187,0.961,2.146,2.144,2.149l0,0c1.187-0.002,2.149-0.964,2.146-2.147V96.29z"/>
		<path fill="#FFFFFF" d="M643.669,136.168c1.02-0.588,1.378-1.904,0.779-2.925l0,0c-0.588-1.023-1.905-1.377-2.927-0.785
			l-19.319,11.153c-1.029,0.592-1.38,1.905-0.788,2.931l0,0c0.592,1.025,1.908,1.378,2.932,0.783L643.669,136.168z"/>
	</g>
	<g id="Layer_9_copy">
		<circle fill="#FFFFFF" cx="576.892" cy="172.338" r="32.362"/>
	</g>
	<g id="Layer_3_copy">
	</g>
	<g id="Layer_10_copy">
	</g>
	<g id="Layer_23">
		<circle fill="#A4C439" cx="577.041" cy="172.448" r="25.502"/>
	</g>
</g>
</svg>
